<?xml version="1.0"?>
<svg height="24" id="svg1630" version="1.1" viewBox="0 0 6.3499999 6.3500002" width="24"
     xmlns="http://www.w3.org/2000/svg">
  <g id="layer1">
    <path d="m 3.9677743,2.9103195 v 0.5293619 h 0.7947261 v 1.058723 H 5.2916665 V 3.1740225 A 0.26454485,0.2646425 0 0 0 5.0261064,2.9103195 Z"
          style="fill:#000000;stroke:none"/>
    <path d="m 1.0583335,1.8515955 v 1.322427 a 0.26454485,0.2646425 0 0 0 0.265559,0.2656589 h 1.058334 V 2.9103195 h -0.794726 v -1.058724 z"
          style="fill:#000000;stroke:none"/>
    <path d="M 2.9094405,3.9690425 V 4.7621093 H 1.8530595 V 5.2914715 H 3.1750004 A 0.26454485,0.2646425 0 0 0 3.4386074,5.0277664 V 3.9690425 Z"
          style="fill:#000000;stroke:none"/>
    <path d="m 3.1750004,1.0585285 a 0.26454485,0.2646425 0 0 0 -0.2655599,0.263705 v 1.058724 h 0.5291669 v -0.79502 h 1.0583331 v -0.527409 z"
          style="fill:#000000;stroke:none"/>
    <path d="m 4.7625004,0.52916652 c -0.2885109,0 -0.5291669,0.240745 -0.5291669,0.52936198 v 0.527409 c 0,0.288617 0.240656,0.529362 0.5291669,0.529362 h 0.5291661 c 0.288511,0 0.529167,-0.240745 0.529167,-0.529362 v -0.527409 c 0,-0.28861698 -0.240656,-0.52936198 -0.529167,-0.52936198 z"
          style="fill:#000000;stroke:none"/>
    <path d="m 1.0583335,0.52916652 c -0.28850996,0 -0.52916596,0.240747 -0.52916696,0.52936198 v 0.527409 c 1e-6,0.288615 0.240657,0.529362 0.52916696,0.529362 h 0.529167 c 0.288511,0 0.529166,-0.240747 0.529166,-0.529362 v -0.527409 c 0,-0.28861498 -0.240655,-0.52936198 -0.529166,-0.52936198 z"
          style="fill:#000000;stroke:none"/>
    <path d="m 1.0583335,4.2327463 c -0.28850996,0 -0.52916596,0.2407471 -0.52916696,0.529363 v 0.5293622 c 1e-6,0.288615 0.240656,0.529362 0.52916696,0.529362 h 0.529167 c 0.288512,0 0.529166,-0.240747 0.529166,-0.529362 V 4.7621093 c 0,-0.2886159 -0.240655,-0.529363 -0.529166,-0.529363 z"
          style="fill:#000000;stroke:none"/>
    <path d="m 4.7625004,4.2327463 c -0.2885109,0 -0.5291669,0.2407452 -0.5291669,0.529363 v 0.5293622 c 0,0.2886171 0.2406549,0.529362 0.5291669,0.529362 h 0.5291661 c 0.288512,0 0.529167,-0.2407449 0.529167,-0.529362 V 4.7621093 c 0,-0.2886178 -0.240656,-0.529363 -0.529167,-0.529363 z"
          style="fill:#000000;stroke:none"/>
    <path d="m 2.6458335,2.1152995 c -0.288512,0 -0.529167,0.240744 -0.529167,0.529362 v 1.0587229 c 0,0.2886192 0.240656,0.5293619 0.529167,0.5293619 h 1.0583341 c 0.2885099,0 0.5291659,-0.2407438 0.5291659,-0.5293619 V 2.6446615 c 0,-0.288617 -0.2406539,-0.529362 -0.5291659,-0.529362 z"
          style="fill:#000000;stroke:none"/>
  </g>
</svg>
