<?xml version="1.0"?><svg enable-background="new 0 0 32 32" id="Line_x5F_editable" version="1.1" viewBox="0 0 32 32" xml:space="preserve" xmlns="http://www.w3.org/2000/svg" xmlns:xlink="http://www.w3.org/1999/xlink"><path d="  M16,16L16,16c-2.761,0-5-2.239-5-5V5c0-1.105,0.895-2,2-2h6c1.105,0,2,0.895,2,2v6C21,13.761,18.761,16,16,16z" fill="none" id="XMLID_179_" stroke="#000000" stroke-linecap="round" stroke-linejoin="round" stroke-miterlimit="10" stroke-width="2"/><path d="  M9,19c-2.209,0-4,1.791-4,4v6h22v-6c0-2.209-1.791-4-4-4H9z" fill="none" id="XMLID_178_" stroke="#000000" stroke-linecap="round" stroke-linejoin="round" stroke-miterlimit="10" stroke-width="2"/><path d="  M20.306,13.5C19.44,12.012,17.846,11,16,11s-3.44,1.012-4.306,2.5" fill="none" id="XMLID_177_" stroke="#000000" stroke-linecap="round" stroke-linejoin="round" stroke-miterlimit="10" stroke-width="2"/><line fill="none" id="XMLID_176_" stroke="#000000" stroke-linecap="round" stroke-linejoin="round" stroke-miterlimit="10" stroke-width="2" x1="11" x2="21" y1="7" y2="7"/><line fill="none" id="XMLID_175_" stroke="#000000" stroke-linecap="round" stroke-linejoin="round" stroke-miterlimit="10" stroke-width="2" x1="12" x2="12" y1="19" y2="22"/><circle cx="21" cy="24" id="XMLID_174_" r="2"/><line fill="none" id="XMLID_173_" stroke="#000000" stroke-linecap="round" stroke-linejoin="round" stroke-miterlimit="10" stroke-width="2" x1="21" x2="21" y1="19" y2="24"/><path d="  M14,26h1l0,0v-1c0-1.657-1.343-3-3-3h0c-1.657,0-3,1.343-3,3v1h1" fill="none" id="XMLID_171_" stroke="#000000" stroke-linecap="round" stroke-linejoin="round" stroke-miterlimit="10" stroke-width="2"/></svg>